<?xml version="1.0" standalone="no"?>
<!DOCTYPE svg PUBLIC "-//W3C//DTD SVG 20010904//EN"
 "http://www.w3.org/TR/2001/REC-SVG-20010904/DTD/svg10.dtd">
<svg version="1.0" xmlns="http://www.w3.org/2000/svg"
 width="597.000000pt" height="245.000000pt" viewBox="0 0 597.000000 245.000000"
 preserveAspectRatio="xMidYMid meet">
<metadata>
Created by potrace 1.16, written by Peter Selinger 2001-2019
</metadata>
<g transform="translate(0.000000,245.000000) scale(0.100000,-0.100000)"
fill="#000000" stroke="none">
<path d="M0 1225 l0 -1225 2985 0 2985 0 0 1225 0 1225 -2985 0 -2985 0 0
-1225z m2050 330 l0 -25 -110 0 -110 0 0 -75 0 -75 100 0 100 0 0 -25 0 -25
-100 0 -100 0 0 -85 0 -85 110 0 110 0 0 -25 0 -25 -145 0 -145 0 0 235 0 235
145 0 145 0 0 -25z m240 -159 c0 -102 4 -196 9 -209 13 -33 42 -41 84 -23 26
10 38 11 46 3 20 -20 12 -38 -24 -53 -53 -22 -109 -18 -142 10 l-28 24 -3 191
-3 191 -30 0 c-24 0 -29 4 -29 25 0 24 3 25 60 25 l60 0 0 -184z m520 -91 l0
-145 60 0 c57 0 60 -1 60 -25 l0 -25 -150 0 -150 0 0 25 c0 24 3 25 60 25 l60
0 0 120 0 120 -60 0 c-57 0 -60 1 -60 25 0 25 1 25 90 25 l90 0 0 -145z m345
89 c22 -31 42 -57 46 -59 3 -2 25 23 50 55 40 54 47 60 82 60 l38 0 -66 -81
c-42 -52 -62 -86 -57 -93 5 -6 34 -43 65 -83 32 -40 57 -74 57 -77 0 -4 -16
-6 -35 -6 -31 0 -39 7 -82 65 -27 35 -50 64 -53 64 -3 0 -27 -29 -54 -64 -43
-58 -52 -65 -83 -65 -40 0 -41 -2 39 97 32 39 58 74 58 78 0 3 -24 36 -53 73
-75 95 -74 92 -30 92 35 0 42 -5 78 -56z m525 -89 l0 -145 60 0 c57 0 60 -1
60 -25 l0 -25 -150 0 -150 0 0 25 c0 24 3 25 60 25 l60 0 0 120 0 120 -60 0
c-57 0 -60 1 -60 25 0 25 1 25 90 25 l90 0 0 -145z m370 125 c0 -25 2 -25 42
0 42 26 109 27 131 2 9 -10 20 -40 23 -65 l7 -47 -32 0 c-26 0 -31 4 -31 23 0
13 -6 31 -13 42 -12 16 -18 17 -47 6 -64 -22 -70 -34 -70 -138 l0 -93 65 0
c63 0 65 -1 65 -25 l0 -25 -140 0 -140 0 0 25 c0 23 4 25 45 25 l45 0 0 120 0
120 -45 0 c-41 0 -45 2 -45 25 0 24 2 25 70 25 63 0 70 -2 70 -20z m-3410 -25
c48 -51 19 -125 -50 -125 -47 0 -74 28 -74 76 0 67 78 98 124 49z m4775 19
c23 -9 47 -61 39 -87 -12 -39 -35 -57 -74 -57 -45 0 -73 27 -73 70 0 55 56 94
108 74z m-4035 -74 l0 -40 -320 0 -320 0 0 40 0 40 320 0 320 0 0 -40z m3860
0 l0 -40 -325 0 -325 0 0 40 0 40 325 0 325 0 0 -40z m-2093 -671 c33 -12 83
-57 83 -75 0 -6 12 -19 26 -29 25 -16 26 -17 6 -31 -23 -16 -67 -96 -76 -140
-9 -40 -66 -108 -106 -124 -21 -9 -30 -19 -30 -36 0 -19 -5 -24 -25 -24 -18 0
-25 5 -25 20 0 11 -7 20 -15 20 -10 0 -15 -10 -15 -30 0 -25 -4 -30 -25 -30
-22 0 -25 4 -25 39 0 31 -4 41 -20 46 -24 7 -90 83 -90 103 0 7 -26 40 -57 73
-51 54 -55 61 -41 75 14 14 21 10 72 -44 31 -32 66 -78 79 -102 55 -105 205
-107 264 -4 13 21 23 50 23 62 0 13 9 35 20 49 44 57 8 143 -60 143 -40 0 -80
-39 -80 -79 0 -17 11 -42 25 -59 46 -55 26 -75 -38 -38 -52 31 -100 33 -143 7
l-31 -19 -32 41 c-35 46 -36 50 -17 66 12 10 19 6 36 -17 22 -29 23 -30 56
-16 18 8 47 14 63 14 25 0 30 5 35 34 8 43 41 85 80 102 38 16 47 17 83 3z"/>
</g>
</svg>
